<?xml version="1.0" encoding="utf-8"?>
<!-- Generator: Adobe Illustrator 27.5.0, SVG Export Plug-In . SVG Version: 6.00 Build 0)  -->
<svg version="1.1" id="Capa_2" xmlns="http://www.w3.org/2000/svg" xmlns:xlink="http://www.w3.org/1999/xlink" x="0px" y="0px"
	 viewBox="0 0 2050 2196" style="enable-background:new 0 0 2050 2196;" xml:space="preserve">
<g>
	<g>
		<path style="fill:#3878BD;" d="M939.625,861.547c13.234-39.598,22.469-82.371,28.402-124.477
			c-5.965-1.898-11.887-3.996-17.691-6.539c-4.789-2.098-9.426-4.43-13.965-6.902c-6.457,38.973-20.086,75.508-44.902,102.527
			c-50.781,55.305-203.551,111.317-278.055,101.942c-115.879-14.563-210.348-174.945-228.902-225.551
			c-29.492-80.453-43.801-251.043,181.578-333.68c173.535-63.625,269.074,2.5,317.984,73.254
			c9.652-11.383,20.645-21.523,32.738-30.23c-55.281-76.293-159.324-140.91-359.727-67.434
			c-275.73,101.098-242.262,289.289-208.637,380.992C369.605,783.144,479,913.176,599.453,986.262l203.594,192.258l105.516-38.691
			L939.625,861.547z M842.902,1113.895l-6.523,2.402l-80.891-77.68c18.258-0.051,35.957-2.855,52.797-9.027
			c16.852-6.176,32.168-15.48,46.125-27.242L842.902,1113.895z"/>
		<g>
			<path style="fill:#E0569A;" d="M1071.906,1599.629c-11.828-8.727-23.172-18.086-33.848-27.883
				c0.281,14.141,1.141,27.859,2.285,39.605c0.109,1.141,0.289,2.289,0.41,3.43c31.668,25.223,67.324,46.563,104.688,60.578
				c-16.293-16.871-33.977-32.445-51.168-49.535C1086.82,1618.391,1079.02,1609.707,1071.906,1599.629z"/>
			<path style="fill:#E0569A;" d="M1007.371,1543.91l-21.406-8.461l-18.609,6.82c1.938,2.375,3.898,4.738,5.891,7.07
				c11.281,13.195,23.234,25.586,34.258,36.207c-0.332-7.484-0.563-15.176-0.563-23.02
				C1006.941,1556.352,1007.102,1550.121,1007.371,1543.91z"/>
			<path style="fill:#E0569A;" d="M1349.313,1635.234c-0.348-8.199-2.82-15.824-6.348-22.855
				c-5.34-10.551-13.113-20.035-22.043-28.781c-8.941-8.719-19.098-16.645-29.473-23.48
				c-37.254-24.594-73.332-35.277-107.238-39.961c-7.676-1.063-15.223-1.809-22.684-2.395c5.215,8.789,8.359,19.063,3.813,31.422
				c4.867,0.453,9.73,0.98,14.59,1.66c30.695,4.32,61.336,13.375,94.477,35.148c11.883,7.809,23.438,17.426,31.555,26.855
				c4.07,4.707,7.266,9.348,9.32,13.457c2.082,4.117,2.98,7.617,3.07,10.199v-0.012l0.016,0.699c-0.043,2.957-0.66,4.711-1.93,6.758
				c-0.973,1.508-2.457,3.125-4.59,4.766c-3.168,2.473-7.766,4.883-13.125,6.867c-5.363,2-11.449,3.594-17.508,4.793
				c-10.578,2.102-22.27,3.223-34.73,3.223c-24.535,0.004-52.043-4.344-80.09-13.664l-0.004-0.004
				c-1.281-0.422-2.559-0.898-3.828-1.34c7.23,7.285,14.422,14.883,21.402,23.074c4.926,5.785,9.707,11.918,14.34,18.344
				c16.57,3.035,32.754,4.57,48.18,4.574c14.309,0,27.984-1.277,40.77-3.816c12.902-2.617,26.844-6.582,39.063-14.371
				c6.078-3.922,11.797-8.945,16.121-15.59c4.332-6.602,6.961-14.895,6.914-23.613c0-0.656-0.012-1.301-0.039-1.941V1635.234z"/>
			<path style="fill:#E0569A;" d="M868.32,657.383l-0.848-1.465l-0.43-0.051c-1.676-2.973-3.266-6-4.77-9.066l-0.137-0.047
				c-0.938-0.41-1.719-1.137-2.195-2.078c-24.84-49.316-26.402-106.582-4.277-157.117c7.301-16.668,16.93-31.906,28.41-45.438
				c-48.91-70.754-144.449-136.879-317.984-73.254c-225.379,82.637-211.07,253.227-181.578,333.68
				c18.555,50.605,113.023,210.988,228.902,225.551c74.504,9.375,227.273-46.637,278.055-101.942
				c24.816-27.019,38.445-63.555,44.902-102.527C908.027,708.176,884.672,685.535,868.32,657.383z"/>
			<path style="fill:#E0569A;" d="M1497.949,376.688c-185.52-73.336-291.238-21.75-351.238,47.348
				c10.398,9.492,19.617,20.262,27.543,32.133c54-65.008,152.5-119.18,314.176-55.273c226.617,89.598,202.004,257.383,170.5,337.066
				c-19.816,50.133-115.594,209.16-231.801,220.816c-74.715,7.504-226.039-52.32-275.418-108.883
				c-28.016-32.078-40.961-76.746-45.195-122.98c-9.918,4.894-20.309,8.977-31.145,12.078c-0.043,0.016-0.094,0.004-0.145,0.016
				c4.457,48.5,13.199,98.828,27.363,145.019l24.086,278.988l104.512,41.316l208.34-187.098
				c122.254-70.047,234.867-197.301,257.461-254.441C1732.895,671.945,1775.188,486.289,1497.949,376.688z M1199.426,1141.289
				l-6.465-2.551l-8.707-111.809c13.656,12.113,28.746,21.801,45.418,28.387c16.68,6.594,34.32,9.844,52.566,10.348
				L1199.426,1141.289z"/>
		</g>
		<path style="fill:#3878BD;" d="M1122.77,1161.469c-2.871-1.137-6.059-0.719-8.535,1.133c-2.465,1.84-3.781,4.766-3.52,7.836
			l1.629,18.859l-0.473,1.875c-26.563,105.684-56.949,181.844-86.348,218.309c-8.762,10.863-17.438,18.246-25.898,21.785
			c-6.633,2.773-14.023,3.922-21.207,5.02c-14.371,2.223-32.262,4.984-39.891,24.273c-10.586,26.77,2.586,57.164,29.363,67.742
			l18.074,7.148l21.406,8.461l30.629,12.113l15.078,5.961l41.941,16.582l2.27,0.898c26.773,10.574,57.16-2.594,67.734-29.363
			c0.125-0.313,0.203-0.609,0.316-0.918c4.547-12.359,1.402-22.633-3.813-31.422c-2.727-4.594-6-8.797-9.035-12.672
			c-4.453-5.695-9.063-11.582-12.004-18.137c-16.359-36.43,13.617-128.285,82.254-251.949l0.938-1.691l13.891-12.469
			c1.121-0.933,1.965-2.113,2.52-3.5c1.789-4.527-0.43-9.672-4.977-11.461l-3.926-1.551l-104.512-41.316L1122.77,1161.469z"/>
		<g>
			<path style="fill:#003F6D;" d="M922.66,1168.355l-0.426-1.891l2.074-18.543c0.215-1.449,0.063-2.895-0.449-4.297
				c-1.676-4.57-6.758-6.93-11.344-5.246l-3.953,1.449l-105.516,38.691l-3.957,1.449c-2.891,1.063-4.988,3.492-5.617,6.512
				c-0.613,3.016,0.355,6.082,2.59,8.199l13.766,12.992l0.895,1.719c65.52,125.355,93.188,217.914,75.93,253.93
				c-3.109,6.48-7.863,12.25-12.492,17.859c-9.254,11.215-20.77,25.176-13.629,44.656c9.906,27.023,39.961,40.953,66.984,31.039
				l39.84-14.605l18.609-6.82l-18.074-7.148c-26.777-10.578-39.949-40.973-29.363-67.742c7.629-19.289,25.52-22.051,39.891-24.273
				c7.184-1.098,14.574-2.246,21.207-5.02c8.461-3.539,17.137-10.922,25.898-21.785
				C990.055,1389.406,952.746,1302.133,922.66,1168.355z"/>
			<path style="fill:#003F6D;" d="M1488.43,400.895c-161.676-63.906-260.176-9.734-314.176,55.273
				c2.047,3.07,4.078,6.16,5.949,9.379l0.859,1.473l0.965,0.121c1.688,2.992,3.281,6.027,4.793,9.102l0.43,0.152
				c0.93,0.402,1.715,1.137,2.188,2.074c24.848,49.317,26.406,106.586,4.277,157.117c-17.605,40.211-48.551,72.25-87.199,91.328
				c4.234,46.234,17.18,90.902,45.195,122.98c49.379,56.563,200.703,116.387,275.418,108.883
				c116.207-11.656,211.984-170.684,231.801-220.816C1690.434,658.277,1715.047,490.492,1488.43,400.895z"/>
		</g>
		<path style="fill:#D4D4D4;" d="M1016.027,412.977c17.719,10.984,38.488,21.789,60.055,31.227
			c35.164,15.395,69.828,26.191,97.605,30.406c4.121,0.621,8.199,1.102,12.133,1.422l1,0.211c-1.512-3.074-3.105-6.109-4.793-9.102
			l-0.965-0.121c-11.27-1.316-24.309-3.934-38.512-7.813c-19.398-5.293-40.953-12.902-63.133-22.613
			c-36.043-15.777-66.914-34.137-87.414-50.809c-1.352-1.094-2.625-2.172-3.875-3.246l-0.742-0.637
			c-3.348,0.793-6.664,1.68-9.961,2.664l0.828,0.59C987.977,394.098,1000.688,403.461,1016.027,412.977z"/>
		<path style="fill:#D4D4D4;" d="M867.473,655.918c11.383,1.297,24.621,3.938,39.047,7.879c19.402,5.293,40.957,12.91,63.137,22.617
			c36.047,15.781,66.91,34.133,87.41,50.809c1.504,1.211,2.91,2.41,4.293,3.602l0.332,0.281c3.359-0.797,6.691-1.688,10.004-2.676
			l-0.563-0.441c-9.723-8.941-22.438-18.305-37.777-27.82c-17.723-10.984-38.484-21.785-60.055-31.234
			c-35.156-15.387-69.828-26.184-97.606-30.398c-4.113-0.621-8.195-1.098-12.141-1.422l-1.281-0.313
			c1.504,3.066,3.094,6.094,4.77,9.066L867.473,655.918z"/>
		<g>
			<path style="fill:#CFDB64;" d="M1237.441,1772.844c-8.91-33.566-22.926-60.32-39.137-82.836
				c-4.633-6.426-9.414-12.559-14.34-18.344c-6.98-8.191-14.172-15.789-21.402-23.074c-15.793-15.891-31.805-30.129-46.418-44.719
				c-7.547-7.508-14.938-15.914-21.125-25.305l-41.941-16.582c3.535,11.52,8.543,21.867,14.313,31.023
				c1.445,2.305,2.988,4.461,4.516,6.621c7.113,10.078,14.914,18.762,22.367,26.195c17.191,17.09,34.875,32.664,51.168,49.535
				c5.129,5.305,10.121,10.727,14.914,16.375c20.031,23.641,36.887,50.785,47.141,89.086c3.52,13.156,5.719,27.34,5.703,39.457
				c0.008,6.578-0.648,12.535-1.855,17.266c-1.199,4.746-2.926,8.156-4.641,10.227c-1.664,1.996-3.086,2.973-4.742,3.707
				c-1.656,0.711-3.688,1.145-6.387,1.148c-3.957,0.027-9.25-1.063-14.949-3.191c-5.703-2.102-11.785-5.164-17.527-8.547
				c-27.656-16.219-56.59-45.543-78.777-84.184c-23.875-41.367-38.332-92.273-43.566-141.922c-0.121-1.141-0.301-2.289-0.41-3.43
				c-1.145-11.746-2.004-25.465-2.285-39.605c-0.059-3.066-0.129-6.125-0.129-9.219c0-2.168,0.035-4.336,0.07-6.504l-30.629-12.113
				c-0.269,6.211-0.43,12.441-0.43,18.617c0,7.844,0.23,15.535,0.563,23.02c0.457,10.234,1.144,20.023,2,28.809
				c5.332,54.48,20.805,110.602,47.961,157.809c24.645,42.742,56.598,75.77,89.914,95.426c6.898,4.051,14.457,7.934,22.508,10.906
				c8.043,2.961,16.605,5.094,25.688,5.117c6.117,0.004,12.527-1.035,18.676-3.688c6.137-2.633,11.855-6.918,16.41-12.504
				l0.004-0.004c5.41-6.625,8.691-14.313,10.719-22.262c2.012-7.973,2.797-16.332,2.801-24.879
				C1244.168,1804.578,1241.508,1788.172,1237.441,1772.844z"/>
			<path style="fill:#CFDB64;" d="M1079.418,436.594c22.18,9.711,43.734,17.32,63.133,22.613
				c14.203,3.879,27.242,6.496,38.512,7.813l-0.859-1.473c-1.871-3.219-3.902-6.309-5.949-9.379
				c-7.926-11.871-17.145-22.641-27.543-32.133c-14.078-12.852-30.223-23.434-48.105-31.266
				c-34.504-15.109-72.129-18.773-108.809-10.605l-1.668,0.375c1.25,1.074,2.523,2.152,3.875,3.246
				C1012.504,402.457,1043.375,420.816,1079.418,436.594z"/>
			<path style="fill:#CFDB64;" d="M1059.703,741.195l1.656-0.371c-1.383-1.191-2.789-2.391-4.293-3.602
				c-20.5-16.676-51.363-35.027-87.41-50.809c-22.18-9.707-43.734-17.324-63.137-22.617c-14.426-3.941-27.664-6.582-39.047-7.879
				l0.848,1.465c16.352,28.152,39.707,50.793,68.051,66.246c4.539,2.473,9.176,4.805,13.965,6.902
				c5.805,2.543,11.727,4.641,17.691,6.539C997.684,746.496,1029.012,748.027,1059.703,741.195z"/>
			<path style="fill:#CFDB64;" d="M973.301,678.934c21.57,9.449,42.332,20.25,60.055,31.234c15.34,9.516,28.055,18.879,37.777,27.82
				l0.563,0.441l0.668,0.367c0.887,0.387,1.895,0.457,2.863,0.211c0.051-0.012,0.102,0,0.145-0.016
				c10.836-3.102,21.227-7.184,31.145-12.078c38.648-19.078,69.594-51.117,87.199-91.328c22.129-50.531,20.57-107.801-4.277-157.117
				c-0.473-0.938-1.258-1.672-2.188-2.074l-0.43-0.152l-1-0.211c-3.934-0.32-8.012-0.801-12.133-1.422
				c-27.777-4.215-62.441-15.012-97.605-30.406c-21.566-9.438-42.336-20.242-60.055-31.227c-15.34-9.516-28.051-18.879-37.773-27.82
				l-0.828-0.59l-0.398-0.219c-0.938-0.406-2-0.488-3.012-0.199c-20.836,5.961-40.102,15.434-57.203,27.742
				c-12.094,8.707-23.086,18.848-32.738,30.23c-11.48,13.531-21.109,28.77-28.41,45.438
				c-22.125,50.535-20.563,107.801,4.277,157.117c0.477,0.941,1.258,1.668,2.195,2.078l0.137,0.047l1.281,0.313
				c3.945,0.324,8.027,0.801,12.141,1.422C903.473,652.75,938.144,663.547,973.301,678.934z"/>
		</g>
	</g>
	<g>
		<path style="fill:#E0E0E0;" d="M491.195,516.168c7.453-2.731,11.277-10.996,8.543-18.445c-2.73-7.438-10.98-11.273-18.438-8.543
			c-7.457,2.738-11.273,10.988-8.543,18.441C475.492,515.066,483.742,518.898,491.195,516.168z"/>
		<path style="fill:#E0E0E0;" d="M566.918,488.406c7.453-2.73,11.273-10.992,8.543-18.441c-2.734-7.449-10.984-11.281-18.438-8.543
			c-7.453,2.727-11.285,10.984-8.543,18.438C551.211,487.309,559.465,491.137,566.918,488.406z"/>
		<path style="fill:#E0E0E0;" d="M642.637,460.641c7.457-2.734,11.277-10.988,8.547-18.441c-2.734-7.453-10.984-11.277-18.438-8.543
			c-7.457,2.73-11.277,10.988-8.551,18.438C626.93,459.547,635.184,463.379,642.637,460.641z"/>
		<path style="fill:#E0E0E0;" d="M718.359,432.879c7.449-2.734,11.273-10.988,8.543-18.438c-2.73-7.461-10.984-11.281-18.43-8.547
			c-7.457,2.73-11.289,10.988-8.551,18.438C702.648,431.785,710.91,435.605,718.359,432.879z"/>
		<path style="fill:#E0E0E0;" d="M494.156,565.984c2.738,7.449,10.984,11.277,18.438,8.551c7.453-2.734,11.281-10.996,8.543-18.449
			c-2.726-7.449-10.984-11.269-18.437-8.543C495.246,550.281,491.426,558.527,494.156,565.984z"/>
		<path style="fill:#E0E0E0;" d="M569.875,538.219c2.734,7.457,10.984,11.281,18.438,8.551c7.453-2.73,11.281-10.988,8.543-18.441
			c-2.73-7.449-10.988-11.281-18.43-8.547C570.965,522.516,567.144,530.773,569.875,538.219z"/>
		<path style="fill:#E0E0E0;" d="M645.598,510.457c2.73,7.453,10.984,11.281,18.445,8.547c7.441-2.734,11.269-10.988,8.535-18.438
			c-2.73-7.453-10.988-11.277-18.438-8.547C646.691,494.746,642.867,503.012,645.598,510.457z"/>
		<path style="fill:#E0E0E0;" d="M721.316,482.699c2.734,7.441,10.992,11.277,18.438,8.543c7.453-2.734,11.281-10.988,8.547-18.438
			c-2.731-7.449-10.981-11.281-18.434-8.547C722.414,466.988,718.59,475.246,721.316,482.699z"/>
		<path style="fill:#E0E0E0;" d="M466.82,642.215c-2.734-7.445-10.988-11.273-18.438-8.543c-7.453,2.73-11.281,10.996-8.551,18.445
			c2.738,7.449,10.984,11.273,18.445,8.535C465.723,657.926,469.551,649.672,466.82,642.215z"/>
		<path style="fill:#E0E0E0;" d="M445.422,583.852c-2.734-7.445-10.984-11.281-18.438-8.543
			c-7.461,2.731-11.281,10.992-8.555,18.438c2.738,7.453,10.988,11.277,18.445,8.551
			C444.328,599.563,448.156,591.309,445.422,583.852z"/>
		<path style="fill:#E0E0E0;" d="M542.539,614.453c-2.73-7.449-10.988-11.27-18.434-8.543c-7.461,2.734-11.277,10.988-8.547,18.438
			c2.73,7.449,10.977,11.281,18.434,8.551C541.445,630.164,545.266,621.906,542.539,614.453z"/>
		<path style="fill:#E0E0E0;" d="M591.273,596.586c2.738,7.449,10.984,11.281,18.441,8.543c7.449-2.727,11.277-10.988,8.547-18.434
			c-2.738-7.453-10.988-11.281-18.441-8.547C592.367,580.879,588.543,589.137,591.273,596.586z"/>
		<path style="fill:#E0E0E0;" d="M667,568.828c2.727,7.449,10.984,11.273,18.438,8.543c7.453-2.73,11.273-10.988,8.543-18.438
			c-2.73-7.457-10.988-11.281-18.437-8.547C668.09,553.117,664.266,561.383,667,568.828z"/>
		<path style="fill:#E0E0E0;" d="M742.715,541.063c2.738,7.453,10.992,11.281,18.445,8.547c7.449-2.738,11.273-10.988,8.539-18.441
			c-2.73-7.445-10.98-11.281-18.434-8.547C743.809,525.359,739.984,533.613,742.715,541.063z"/>
		<path style="fill:#E0E0E0;" d="M815.477,463.48c7.453-2.73,11.277-10.984,8.543-18.445c-2.73-7.453-10.984-11.273-18.441-8.543
			c-7.449,2.742-11.269,10.996-8.539,18.445C799.769,462.387,808.019,466.215,815.477,463.48z"/>
		<path style="fill:#E0E0E0;" d="M488.215,700.582c-2.73-7.449-10.98-11.277-18.438-8.551c-7.449,2.738-11.273,10.988-8.547,18.449
			c2.734,7.449,10.988,11.281,18.438,8.543C487.129,716.293,490.953,708.035,488.215,700.582z"/>
		<path style="fill:#E0E0E0;" d="M563.941,672.824c-2.734-7.453-10.992-11.281-18.438-8.555
			c-7.461,2.734-11.277,10.996-8.547,18.449c2.731,7.453,10.984,11.273,18.438,8.543
			C562.84,688.527,566.676,680.277,563.941,672.824z"/>
		<path style="fill:#E0E0E0;" d="M639.66,645.055c-2.734-7.441-10.992-11.273-18.441-8.547c-7.453,2.734-11.277,10.992-8.543,18.441
			c2.734,7.453,10.984,11.289,18.434,8.555C638.566,660.769,642.391,652.508,639.66,645.055z"/>
		<path style="fill:#E0E0E0;" d="M688.398,627.188c2.727,7.461,10.981,11.277,18.438,8.547c7.449-2.73,11.277-10.98,8.543-18.441
			c-2.727-7.449-10.984-11.281-18.438-8.551C689.484,611.484,685.668,619.738,688.398,627.188z"/>
		<path style="fill:#E0E0E0;" d="M764.117,599.43c2.73,7.453,10.988,11.273,18.438,8.543c7.457-2.727,11.277-10.984,8.543-18.438
			c-2.734-7.457-10.98-11.285-18.438-8.547C765.211,583.719,761.387,591.973,764.117,599.43z"/>
		<path style="fill:#E0E0E0;" d="M509.617,758.949c-2.73-7.449-10.988-11.277-18.434-8.547c-7.457,2.731-11.289,10.988-8.551,18.441
			c2.73,7.449,10.984,11.281,18.441,8.543C508.527,774.656,512.348,766.402,509.617,758.949z"/>
		<path style="fill:#E0E0E0;" d="M512.578,808.769c-7.453,2.734-11.277,10.988-8.543,18.441c2.727,7.449,10.984,11.273,18.438,8.539
			c7.453-2.734,11.277-10.988,8.543-18.438C528.281,809.859,520.035,806.035,512.578,808.769z"/>
		<path style="fill:#E0E0E0;" d="M585.34,731.191c-2.73-7.453-10.988-11.285-18.438-8.555c-7.461,2.734-11.273,10.992-8.543,18.445
			c2.727,7.449,10.977,11.277,18.438,8.543C584.25,746.894,588.07,738.637,585.34,731.191z"/>
		<path style="fill:#E0E0E0;" d="M661.055,703.426c-2.731-7.445-10.984-11.281-18.438-8.551s-11.281,10.996-8.543,18.445
			c2.731,7.449,10.984,11.269,18.438,8.547C659.965,719.133,663.789,710.879,661.055,703.426z"/>
		<path style="fill:#E0E0E0;" d="M736.781,675.656c-2.734-7.441-10.988-11.273-18.442-8.543
			c-7.453,2.734-11.277,10.988-8.543,18.445c2.727,7.445,10.988,11.273,18.441,8.543
			C735.688,691.367,739.508,683.106,736.781,675.656z"/>
		<path style="fill:#E0E0E0;" d="M785.516,657.793c2.738,7.445,10.988,11.277,18.438,8.539c7.461-2.723,11.281-10.988,8.547-18.438
			c-2.731-7.449-10.988-11.281-18.434-8.539C786.609,642.082,782.785,650.34,785.516,657.793z"/>
		<path style="fill:#E0E0E0;" d="M606.738,789.551c-2.73-7.449-10.992-11.277-18.438-8.543c-7.457,2.734-11.273,10.984-8.543,18.434
			c2.73,7.453,10.98,11.285,18.438,8.547C605.641,805.258,609.469,797,606.738,789.551z"/>
		<path style="fill:#E0E0E0;" d="M673.914,780.227c7.449-2.731,11.273-10.988,8.543-18.438c-2.734-7.449-10.988-11.281-18.434-8.551
			c-7.457,2.734-11.281,10.996-8.547,18.445C658.203,779.137,666.461,782.957,673.914,780.227z"/>
		<path style="fill:#E0E0E0;" d="M749.637,752.465c7.449-2.73,11.273-10.992,8.539-18.434c-2.731-7.461-10.988-11.281-18.438-8.555
			c-7.453,2.738-11.273,10.988-8.539,18.445C733.93,751.367,742.18,755.195,749.637,752.465z"/>
		<path style="fill:#E0E0E0;" d="M815.461,697.723c-7.453,2.723-11.277,10.988-8.543,18.438c2.726,7.445,10.984,11.273,18.437,8.543
			c7.453-2.734,11.273-10.984,8.543-18.438C831.164,698.809,822.918,694.988,815.461,697.723z"/>
		<path style="fill:#E0E0E0;" d="M609.699,839.371c-7.457,2.734-11.277,10.988-8.543,18.434c2.73,7.457,10.98,11.285,18.433,8.547
			c7.457-2.734,11.281-10.984,8.543-18.438C625.41,840.469,617.152,836.637,609.699,839.371z"/>
		<path style="fill:#E0E0E0;" d="M685.418,811.613c-7.453,2.723-11.277,10.984-8.551,18.43c2.742,7.457,10.988,11.281,18.441,8.551
			c7.449-2.738,11.281-10.988,8.547-18.438C701.125,812.699,692.871,808.879,685.418,811.613z"/>
		<path style="fill:#E0E0E0;" d="M771.031,810.82c7.453-2.715,11.273-10.973,8.547-18.43c-2.73-7.453-10.984-11.273-18.434-8.551
			c-7.453,2.738-11.285,10.996-8.551,18.445C755.324,809.738,763.578,813.559,771.031,810.82z"/>
		<path style="fill:#E0E0E0;" d="M855.297,764.629c-2.73-7.449-10.984-11.273-18.438-8.551c-7.453,2.738-11.277,10.996-8.547,18.445
			c2.738,7.453,10.988,11.273,18.441,8.543C854.203,780.328,858.031,772.082,855.297,764.629z"/>
		<path style="fill:#E0E0E0;" d="M898.598,869.742c-2.996-3.055-7.898-3.098-10.953-0.102c-7.871,7.734-16.726,14.766-25.98,21.266
			c-3.5,2.461-4.34,7.293-1.883,10.793c2.461,3.5,7.293,4.34,10.793,1.879l0,0c9.738-6.844,19.258-14.371,27.926-22.883
			C901.555,877.691,901.598,872.793,898.598,869.742z"/>
		<path style="fill:#E0E0E0;" d="M818.328,913.957c-17.348,10.652-41.637,21.027-66.078,28.59c-24.418,7.59-49.168,12.371-67,12.348
			c-6.156,0.004-11.453-0.57-15.453-1.621c-4.141-1.078-8.371,1.402-9.449,5.543c-1.078,4.141,1.402,8.371,5.543,9.449
			c5.797,1.504,12.277,2.113,19.359,2.121c20.414-0.031,46.078-5.16,71.586-13.043c25.488-7.906,50.637-18.57,69.59-30.18
			c3.644-2.231,4.793-7.004,2.555-10.648C826.742,912.867,821.973,911.723,818.328,913.957z"/>
		<path style="fill:#E0E0E0;" d="M1334.523,461.051c7.375,2.918,15.734-0.715,18.648-8.09c2.91-7.375-0.703-15.727-8.086-18.645
			c-7.391-2.926-15.727,0.695-18.645,8.078C1323.523,449.773,1327.137,458.129,1334.523,461.051z"/>
		<path style="fill:#E0E0E0;" d="M1409.516,490.691c7.383,2.922,15.742-0.695,18.656-8.078c2.906-7.383-0.703-15.734-8.086-18.645
			c-7.375-2.918-15.727,0.695-18.645,8.086C1398.527,479.426,1402.141,487.777,1409.516,490.691z"/>
		<path style="fill:#E0E0E0;" d="M1484.523,520.344c7.383,2.918,15.73-0.699,18.648-8.086c2.914-7.379-0.699-15.727-8.078-18.645
			c-7.387-2.922-15.734,0.711-18.648,8.082C1473.52,509.074,1477.141,517.43,1484.523,520.344z"/>
		<path style="fill:#E0E0E0;" d="M1559.523,549.992c7.383,2.918,15.734-0.703,18.645-8.078c2.926-7.387-0.691-15.734-8.074-18.637
			c-7.383-2.922-15.734,0.688-18.648,8.07C1548.531,538.727,1552.145,547.074,1559.523,549.992z"/>
		<path style="fill:#E0E0E0;" d="M1311.668,518.863c7.383,2.914,15.738-0.707,18.645-8.09c2.918-7.383-0.699-15.73-8.082-18.648
			c-7.383-2.914-15.723,0.699-18.645,8.082C1300.672,507.59,1304.277,515.938,1311.668,518.863z"/>
		<path style="fill:#E0E0E0;" d="M1386.668,548.5c7.379,2.922,15.727-0.695,18.645-8.078c2.914-7.379-0.703-15.734-8.074-18.645
			c-7.391-2.926-15.742,0.695-18.648,8.078C1375.672,537.246,1379.277,545.59,1386.668,548.5z"/>
		<path style="fill:#E0E0E0;" d="M1461.672,578.16c7.379,2.91,15.73-0.711,18.645-8.09c2.914-7.383-0.699-15.731-8.078-18.648
			c-7.383-2.922-15.73,0.715-18.648,8.082C1450.676,566.887,1454.285,575.234,1461.672,578.16z"/>
		<path style="fill:#E0E0E0;" d="M1536.668,607.809c7.379,2.914,15.734-0.707,18.648-8.09c2.922-7.367-0.695-15.719-8.078-18.644
			c-7.387-2.914-15.723,0.699-18.648,8.078C1525.68,596.535,1529.297,604.887,1536.668,607.809z"/>
		<path style="fill:#E0E0E0;" d="M1236.664,489.199c7.383,2.926,15.73-0.695,18.656-8.07c2.91-7.375-0.703-15.738-8.09-18.648
			c-7.379-2.918-15.734,0.695-18.652,8.074C1225.668,477.938,1229.281,486.289,1236.664,489.199z"/>
		<path style="fill:#E0E0E0;" d="M1288.813,576.668c7.375,2.914,15.727-0.703,18.648-8.086c2.926-7.379-0.695-15.723-8.078-18.641
			c-7.391-2.918-15.73,0.703-18.652,8.074C1277.816,565.394,1281.422,573.742,1288.813,576.668z"/>
		<path style="fill:#E0E0E0;" d="M1363.816,606.316c7.375,2.914,15.73-0.703,18.645-8.082c2.91-7.383-0.699-15.727-8.082-18.645
			c-7.387-2.918-15.73,0.699-18.637,8.074C1352.816,595.047,1356.434,603.394,1363.816,606.316z"/>
		<path style="fill:#E0E0E0;" d="M1438.813,635.969c7.387,2.918,15.734-0.703,18.648-8.086c2.922-7.371-0.699-15.727-8.082-18.648
			c-7.375-2.918-15.727,0.707-18.645,8.086C1427.82,624.703,1431.441,633.043,1438.813,635.969z"/>
		<path style="fill:#E0E0E0;" d="M1513.824,665.617c7.383,2.914,15.723-0.703,18.633-8.078c2.922-7.379-0.691-15.734-8.063-18.652
			c-7.391-2.918-15.746,0.703-18.656,8.086C1502.82,654.344,1506.441,662.695,1513.824,665.617z"/>
		<path style="fill:#E0E0E0;" d="M1599.383,668.531c-7.383-2.918-15.727,0.711-18.652,8.09c-2.91,7.383,0.707,15.723,8.094,18.645
			c7.379,2.918,15.723-0.703,18.648-8.078C1610.383,679.809,1606.766,671.453,1599.383,668.531z"/>
		<path style="fill:#E0E0E0;" d="M1622.234,610.723c-7.383-2.914-15.73,0.711-18.645,8.078c-2.914,7.383,0.695,15.73,8.078,18.648
			c7.391,2.926,15.73-0.688,18.656-8.086C1633.242,621.984,1629.621,613.641,1622.234,610.723z"/>
		<path style="fill:#E0E0E0;" d="M1265.965,634.481c7.367,2.914,15.727-0.695,18.641-8.086c2.914-7.387-0.703-15.726-8.074-18.648
			c-7.387-2.918-15.738,0.711-18.656,8.086C1254.961,623.215,1258.574,631.555,1265.965,634.481z"/>
		<path style="fill:#E0E0E0;" d="M1351.527,637.394c-7.383-2.918-15.73,0.703-18.645,8.078c-2.922,7.391,0.695,15.742,8.07,18.656
			c7.387,2.918,15.738-0.699,18.652-8.078C1362.527,648.668,1358.906,640.316,1351.527,637.394z"/>
		<path style="fill:#E0E0E0;" d="M1426.531,667.043c-7.391-2.914-15.727,0.707-18.648,8.086c-2.926,7.383,0.695,15.727,8.086,18.648
			c7.383,2.914,15.723-0.691,18.645-8.078C1437.531,678.316,1433.91,669.953,1426.531,667.043z"/>
		<path style="fill:#E0E0E0;" d="M1501.527,696.695c-7.379-2.918-15.727,0.699-18.648,8.086c-2.914,7.387,0.707,15.723,8.086,18.645
			c7.383,2.926,15.723-0.695,18.648-8.074C1512.523,707.965,1508.918,699.617,1501.527,696.695z"/>
		<path style="fill:#E0E0E0;" d="M1576.535,726.352c-7.383-2.926-15.734,0.691-18.645,8.082c-2.926,7.379,0.695,15.727,8.078,18.645
			c7.379,2.91,15.723-0.699,18.648-8.082C1587.527,737.617,1583.918,729.266,1576.535,726.352z"/>
		<path style="fill:#E0E0E0;" d="M1253.672,665.563c-7.383-2.926-15.727,0.703-18.648,8.082c-2.91,7.383,0.699,15.727,8.082,18.645
			c7.379,2.922,15.723-0.707,18.648-8.074C1264.668,676.832,1261.055,668.477,1253.672,665.563z"/>
		<path style="fill:#E0E0E0;" d="M1328.672,695.199c-7.375-2.91-15.734,0.711-18.648,8.09c-2.91,7.383,0.699,15.723,8.078,18.648
			c7.383,2.922,15.734-0.695,18.645-8.078C1339.672,706.481,1336.055,698.129,1328.672,695.199z"/>
		<path style="fill:#E0E0E0;" d="M1403.684,724.859c-7.391-2.922-15.742,0.703-18.656,8.082c-2.918,7.379,0.703,15.734,8.078,18.648
			c7.391,2.914,15.73-0.711,18.652-8.082C1414.672,736.129,1411.059,727.773,1403.684,724.859z"/>
		<path style="fill:#E0E0E0;" d="M1478.684,754.512c-7.383-2.926-15.738,0.699-18.656,8.082c-2.914,7.375,0.703,15.727,8.09,18.645
			c7.379,2.926,15.73-0.695,18.645-8.082C1489.676,765.773,1486.063,757.422,1478.684,754.512z"/>
		<path style="fill:#E0E0E0;" d="M1553.68,784.16c-7.383-2.922-15.734,0.699-18.648,8.074c-2.918,7.391,0.699,15.734,8.086,18.656
			c7.375,2.918,15.723-0.711,18.641-8.082C1564.68,795.426,1561.063,787.078,1553.68,784.16z"/>
		<path style="fill:#E0E0E0;" d="M1530.828,841.969c-7.383-2.914-15.73,0.707-18.652,8.082c-2.922,7.379,0.699,15.73,8.086,18.656
			c7.383,2.902,15.727-0.707,18.645-8.09C1541.828,853.234,1538.203,844.883,1530.828,841.969z"/>
		<path style="fill:#E0E0E0;" d="M1220.254,750.102c7.375,2.91,15.73-0.699,18.641-8.082c2.926-7.375-0.695-15.726-8.078-18.648
			c-7.383-2.922-15.719,0.703-18.641,8.078C1209.258,738.828,1212.871,747.184,1220.254,750.102z"/>
		<path style="fill:#E0E0E0;" d="M1313.906,771.668c2.902-7.379-0.707-15.734-8.078-18.645c-7.391-2.922-15.734,0.699-18.656,8.074
			c-2.918,7.387,0.707,15.734,8.086,18.652C1302.641,782.66,1310.984,779.039,1313.906,771.668z"/>
		<path style="fill:#E0E0E0;" d="M1362.18,790.754c-2.918,7.379,0.695,15.73,8.078,18.652c7.383,2.914,15.734-0.711,18.645-8.086
			c2.918-7.383-0.703-15.734-8.082-18.648C1373.438,779.75,1365.086,783.371,1362.18,790.754z"/>
		<path style="fill:#E0E0E0;" d="M1455.824,812.324c-7.383-2.918-15.734,0.703-18.652,8.086c-2.914,7.367,0.703,15.719,8.086,18.637
			c7.379,2.918,15.723-0.699,18.648-8.082C1466.816,823.582,1463.199,815.246,1455.824,812.324z"/>
		<path style="fill:#E0E0E0;" d="M1197.398,807.91c7.379,2.91,15.73-0.699,18.641-8.082c2.926-7.375-0.691-15.723-8.074-18.633
			c-7.383-2.93-15.73,0.688-18.645,8.063C1186.406,796.641,1190.012,804.992,1197.398,807.91z"/>
		<path style="fill:#E0E0E0;" d="M1282.961,810.836c-7.383-2.918-15.723,0.695-18.645,8.07c-2.91,7.387,0.703,15.734,8.086,18.652
			c7.375,2.91,15.727-0.699,18.645-8.078C1293.969,822.102,1290.348,813.746,1282.961,810.836z"/>
		<path style="fill:#E0E0E0;" d="M1366.051,859.125c2.91-7.383-0.699-15.719-8.074-18.641c-7.387-2.914-15.742,0.703-18.648,8.078
			c-2.93,7.379,0.695,15.731,8.074,18.641C1354.781,870.125,1363.125,866.508,1366.051,859.125z"/>
		<path style="fill:#E0E0E0;" d="M1432.969,870.125c-7.379-2.91-15.73,0.711-18.652,8.082c-2.914,7.391,0.707,15.734,8.086,18.656
			c7.383,2.91,15.73-0.695,18.648-8.09C1443.973,881.398,1440.352,873.047,1432.969,870.125z"/>
		<path style="fill:#E0E0E0;" d="M1395.336,988.695c-2.648,0.129-5.309,0.188-7.984,0.188c-8.457,0-17.02-0.609-25.559-1.602
			c-4.25-0.496-8.094,2.551-8.586,6.801c-0.496,4.246,2.547,8.094,6.797,8.59c8.992,1.043,18.152,1.703,27.348,1.703
			c2.91,0,5.82-0.066,8.73-0.207c4.273-0.199,7.57-3.832,7.363-8.109C1403.238,991.789,1399.609,988.488,1395.336,988.695z"/>
		<path style="fill:#E0E0E0;" d="M1314.098,975.672c-23.508-4.207-53.867-15.066-80.25-28.305
			c-13.207-6.609-25.453-13.813-35.383-20.969c-9.934-7.125-17.535-14.32-21.402-20.188c-2.375-3.559-7.188-4.523-10.746-2.148
			c-3.563,2.371-4.52,7.184-2.148,10.742c5.648,8.406,14.426,16.344,25.242,24.16c16.227,11.676,37.105,22.856,58.734,32.07
			c21.645,9.203,43.969,16.414,63.215,19.879c4.211,0.758,8.234-2.043,8.992-6.254
			C1321.105,980.449,1318.309,976.426,1314.098,975.672z"/>
		<path style="fill:#E0E0E0;" d="M1130.484,1540.418c-23.602-3.523-54.789-13.094-82.934-24.281
			c-14.086-5.586-27.441-11.582-38.766-17.383c-11.309-5.781-20.629-11.441-26.367-16.012c-3.352-2.656-8.223-2.098-10.883,1.25
			c-2.66,3.356-2.102,8.227,1.25,10.883c7.129,5.645,17.066,11.574,28.938,17.668c17.789,9.113,39.852,18.438,62.246,26.242
			c22.398,7.797,45.047,14.07,64.215,16.957c4.23,0.633,8.176-2.281,8.813-6.512C1137.629,1545,1134.715,1541.055,1130.484,1540.418
			z"/>
		<path style="fill:#E0E0E0;" d="M872.273,634.539c1.926,3.82,6.582,5.359,10.402,3.43c3.82-1.918,5.359-6.578,3.434-10.398
			c-4.535-9-8.172-18.453-10.82-28.16c-3.461-12.688-5.148-25.695-5.148-38.656c-0.008-40.438,16.434-80.43,46.043-108.789
			c3.086-2.957,3.191-7.867,0.23-10.953c-2.961-3.09-7.863-3.191-10.953-0.23c-32.773,31.434-50.797,75.363-50.813,119.973
			c0,14.305,1.859,28.684,5.695,42.738C863.269,614.207,867.277,624.621,872.273,634.539z"/>
		<path style="fill:#E0E0E0;" d="M944.383,430.73c10.762-6.258,22.32-11.172,34.301-14.602c4.113-1.172,6.492-5.461,5.32-9.574
			c-1.18-4.113-5.469-6.492-9.582-5.316c-13.207,3.777-25.945,9.188-37.832,16.102c-3.699,2.148-4.953,6.895-2.801,10.59
			C935.941,431.629,940.684,432.883,944.383,430.73z"/>
		<path style="fill:#E0E0E0;" d="M905.715,1187.176c-1.754-3.898-6.34-5.637-10.242-3.883
			c-14.891,6.734-31.102,13.133-46.117,14.297c-4.266,0.344-7.445,4.074-7.105,8.344c0.34,4.262,4.074,7.441,8.34,7.098
			c18.359-1.5,35.91-8.738,51.242-15.613C905.734,1195.664,907.473,1191.082,905.715,1187.176z"/>
		<path style="fill:#E0E0E0;" d="M916.613,1242.547c-1.578-3.98-6.082-5.926-10.059-4.348c-12.156,4.836-24.746,9.34-36.578,10.258
			c-4.262,0.34-7.445,4.074-7.105,8.34c0.34,4.262,4.074,7.445,8.336,7.105c14.754-1.199,28.613-6.395,41.059-11.301
			C916.242,1251.023,918.188,1246.52,916.613,1242.547z"/>
		<path style="fill:#E0E0E0;" d="M941.445,1290.871c-1.66-3.941-6.203-5.789-10.144-4.125
			c-13.578,5.754-27.965,11.191-41.395,12.234c-4.266,0.34-7.445,4.078-7.109,8.34c0.34,4.266,4.074,7.445,8.34,7.105
			c16.582-1.352,32.273-7.563,46.184-13.406C941.262,1299.355,943.109,1294.813,941.445,1290.871z"/>
		<path style="fill:#E0E0E0;" d="M949.754,1346.992c-1.449-4.023-5.887-6.113-9.914-4.664c-9.898,3.578-19.875,6.781-29.316,7.52
			c-4.262,0.344-7.445,4.074-7.105,8.34c0.344,4.266,4.074,7.445,8.344,7.105c11.965-0.973,23.141-4.734,33.328-8.391
			C949.113,1355.453,951.203,1351.016,949.754,1346.992z"/>
		<path style="fill:#E0E0E0;" d="M974.613,1395.512c-1.531-3.992-6.012-5.992-10.008-4.457c-11.418,4.402-23.125,8.461-34.152,9.32
			c-4.266,0.34-7.445,4.074-7.105,8.34c0.34,4.262,4.078,7.445,8.34,7.102c13.824-1.125,26.777-5.832,38.473-10.301
			C974.152,1403.984,976.148,1399.508,974.613,1395.512z"/>
		<path style="fill:#E0E0E0;" d="M1193.66,1230.977c-14.941-1.899-30.82-9.074-45.363-16.527c-3.813-1.941-8.48-0.43-10.426,3.387
			c-1.945,3.805-0.43,8.469,3.379,10.418c14.984,7.609,32.16,15.691,50.426,18.09c4.242,0.547,8.125-2.445,8.676-6.688
			C1200.898,1235.41,1197.898,1231.527,1193.66,1230.977z"/>
		<path style="fill:#E0E0E0;" d="M1170.586,1280.781c-11.77-1.492-24.133-6.605-36.039-12.031c-3.891-1.766-8.48-0.043-10.25,3.852
			c-1.77,3.898-0.043,8.488,3.852,10.258c12.188,5.508,25.781,11.367,40.457,13.289c4.246,0.543,8.125-2.453,8.672-6.691
			C1177.824,1285.211,1174.828,1281.328,1170.586,1280.781z"/>
		<path style="fill:#E0E0E0;" d="M1148.219,1330.273c-13.363-1.695-27.469-7.824-40.742-14.234
			c-3.859-1.852-8.488-0.227-10.344,3.625c-1.852,3.859-0.227,8.488,3.633,10.34c13.605,6.508,28.98,13.477,45.473,15.637
			c4.242,0.543,8.125-2.449,8.676-6.695C1155.461,1334.703,1152.461,1330.82,1148.219,1330.273z"/>
		<path style="fill:#E0E0E0;" d="M1090.285,1385.441c9.996,4.141,20.973,8.445,32.883,10c4.238,0.543,8.121-2.445,8.672-6.691
			c0.547-4.242-2.449-8.125-6.691-8.676c-9.391-1.195-19.199-4.883-28.914-8.941c-3.945-1.637-8.484,0.227-10.125,4.18
			C1084.465,1379.262,1086.332,1383.797,1090.285,1385.441z"/>
		<path style="fill:#E0E0E0;" d="M1062.875,1432.773c11.465,5.035,24.172,10.359,37.93,12.16c4.242,0.551,8.121-2.445,8.668-6.691
			c0.551-4.242-2.445-8.125-6.688-8.676c-10.973-1.391-22.469-6.016-33.66-10.969c-3.914-1.723-8.488,0.051-10.211,3.965
			C1057.184,1426.477,1058.957,1431.051,1062.875,1432.773z"/>
	</g>
</g>
</svg>
